<?xml version="1.0" standalone="no"?>
<!DOCTYPE svg PUBLIC "-//W3C//DTD SVG 1.1//EN" "http://www.w3.org/Graphics/SVG/1.1/DTD/svg11.dtd">
<svg height="476px" width="1404px" version="1.1" xmlns="http://www.w3.org/2000/svg" xmlns:xlink= "http://www.w3.org/1999/xlink">
	<image xlink:href="prev.jpg" x="0px" height="476px" width="702px"/>
	<image xlink:href="next.jpg" x="702px" height="476px" width="702px"/>
	<circle cx="10" cy="18" r="3" fill="blue"/>
	<circle cx="717" cy="19" r="3" fill="blue"/>
	<circle cx="712" cy="18" r="3" fill="yellow"/>
	<circle cx="710" cy="18" r="3" fill="green"/>
	<circle cx="5" cy="78" r="3" fill="blue"/>
	<circle cx="707" cy="72" r="3" fill="blue"/>
	<circle cx="707" cy="78" r="3" fill="yellow"/>
	<circle cx="705" cy="78" r="3" fill="green"/>
	<circle cx="83" cy="174" r="3" fill="blue"/>
	<circle cx="790" cy="179" r="3" fill="blue"/>
	<circle cx="785" cy="174" r="3" fill="yellow"/>
	<circle cx="784" cy="173" r="3" fill="green"/>
	<circle cx="51" cy="208" r="3" fill="blue"/>
	<circle cx="749" cy="210" r="3" fill="blue"/>
	<circle cx="753" cy="208" r="3" fill="yellow"/>
	<circle cx="752" cy="207" r="3" fill="green"/>
	<circle cx="47" cy="275" r="3" fill="blue"/>
	<circle cx="743" cy="273" r="3" fill="blue"/>
	<circle cx="749" cy="275" r="3" fill="yellow"/>
	<circle cx="748" cy="274" r="3" fill="green"/>
	<circle cx="31" cy="325" r="3" fill="blue"/>
	<circle cx="738" cy="319" r="3" fill="blue"/>
	<circle cx="733" cy="325" r="3" fill="yellow"/>
	<circle cx="732" cy="324" r="3" fill="green"/>
	<circle cx="49" cy="373" r="3" fill="blue"/>
	<circle cx="752" cy="376" r="3" fill="blue"/>
	<circle cx="751" cy="373" r="3" fill="yellow"/>
	<circle cx="751" cy="371" r="3" fill="green"/>
	<circle cx="21" cy="460" r="3" fill="blue"/>
	<circle cx="717" cy="465" r="3" fill="blue"/>
	<circle cx="723" cy="460" r="3" fill="yellow"/>
	<circle cx="723" cy="458" r="3" fill="green"/>
	<circle cx="162" cy="55" r="3" fill="blue"/>
	<circle cx="869" cy="49" r="3" fill="blue"/>
	<circle cx="864" cy="55" r="3" fill="yellow"/>
	<circle cx="863" cy="54" r="3" fill="green"/>
	<circle cx="159" cy="98" r="3" fill="blue"/>
	<circle cx="866" cy="93" r="3" fill="blue"/>
	<circle cx="861" cy="98" r="3" fill="yellow"/>
	<circle cx="860" cy="97" r="3" fill="green"/>
	<circle cx="157" cy="151" r="3" fill="blue"/>
	<circle cx="856" cy="152" r="3" fill="blue"/>
	<circle cx="859" cy="151" r="3" fill="yellow"/>
	<circle cx="859" cy="149" r="3" fill="green"/>
	<circle cx="143" cy="186" r="3" fill="blue"/>
	<circle cx="841" cy="188" r="3" fill="blue"/>
	<circle cx="845" cy="186" r="3" fill="yellow"/>
	<circle cx="845" cy="184" r="3" fill="green"/>
	<circle cx="163" cy="293" r="3" fill="blue"/>
	<circle cx="861" cy="298" r="3" fill="blue"/>
	<circle cx="865" cy="293" r="3" fill="yellow"/>
	<circle cx="865" cy="291" r="3" fill="green"/>
	<circle cx="163" cy="320" r="3" fill="blue"/>
	<circle cx="859" cy="320" r="3" fill="blue"/>
	<circle cx="865" cy="320" r="3" fill="yellow"/>
	<circle cx="865" cy="318" r="3" fill="green"/>
	<circle cx="123" cy="397" r="3" fill="blue"/>
	<circle cx="830" cy="391" r="3" fill="blue"/>
	<circle cx="825" cy="397" r="3" fill="yellow"/>
	<circle cx="825" cy="395" r="3" fill="green"/>
	<circle cx="141" cy="419" r="3" fill="blue"/>
	<circle cx="848" cy="413" r="3" fill="blue"/>
	<circle cx="843" cy="419" r="3" fill="yellow"/>
	<circle cx="844" cy="416" r="3" fill="green"/>
	<circle cx="197" cy="4" r="3" fill="blue"/>
	<circle cx="904" cy="13" r="3" fill="blue"/>
	<circle cx="899" cy="4" r="3" fill="yellow"/>
	<circle cx="898" cy="3" r="3" fill="green"/>
	<circle cx="244" cy="76" r="3" fill="blue"/>
	<circle cx="942" cy="70" r="3" fill="blue"/>
	<circle cx="946" cy="76" r="3" fill="yellow"/>
	<circle cx="946" cy="74" r="3" fill="green"/>
	<circle cx="178" cy="129" r="3" fill="blue"/>
	<circle cx="885" cy="123" r="3" fill="blue"/>
	<circle cx="880" cy="129" r="3" fill="yellow"/>
	<circle cx="880" cy="127" r="3" fill="green"/>
	<circle cx="179" cy="188" r="3" fill="blue"/>
	<circle cx="882" cy="182" r="3" fill="blue"/>
	<circle cx="881" cy="188" r="3" fill="yellow"/>
	<circle cx="881" cy="186" r="3" fill="green"/>
	<circle cx="236" cy="283" r="3" fill="blue"/>
	<circle cx="932" cy="284" r="3" fill="blue"/>
	<circle cx="938" cy="283" r="3" fill="yellow"/>
	<circle cx="939" cy="280" r="3" fill="green"/>
	<circle cx="258" cy="300" r="3" fill="blue"/>
	<circle cx="965" cy="294" r="3" fill="blue"/>
	<circle cx="960" cy="300" r="3" fill="yellow"/>
	<circle cx="961" cy="297" r="3" fill="green"/>
	<circle cx="237" cy="393" r="3" fill="blue"/>
	<circle cx="942" cy="387" r="3" fill="blue"/>
	<circle cx="939" cy="393" r="3" fill="yellow"/>
	<circle cx="940" cy="390" r="3" fill="green"/>
	<circle cx="222" cy="426" r="3" fill="blue"/>
	<circle cx="929" cy="427" r="3" fill="blue"/>
	<circle cx="924" cy="426" r="3" fill="yellow"/>
	<circle cx="925" cy="423" r="3" fill="green"/>
	<circle cx="346" cy="55" r="3" fill="blue"/>
	<circle cx="1044" cy="50" r="3" fill="blue"/>
	<circle cx="1048" cy="55" r="3" fill="yellow"/>
	<circle cx="1049" cy="52" r="3" fill="green"/>
	<circle cx="333" cy="110" r="3" fill="blue"/>
	<circle cx="1040" cy="104" r="3" fill="blue"/>
	<circle cx="1035" cy="110" r="3" fill="yellow"/>
	<circle cx="1036" cy="107" r="3" fill="green"/>
	<circle cx="267" cy="160" r="3" fill="blue"/>
	<circle cx="964" cy="162" r="3" fill="blue"/>
	<circle cx="969" cy="160" r="3" fill="yellow"/>
	<circle cx="970" cy="157" r="3" fill="green"/>
	<circle cx="305" cy="225" r="3" fill="blue"/>
	<circle cx="1012" cy="229" r="3" fill="blue"/>
	<circle cx="1007" cy="225" r="3" fill="yellow"/>
	<circle cx="1008" cy="222" r="3" fill="green"/>
	<circle cx="339" cy="246" r="3" fill="blue"/>
	<circle cx="1046" cy="241" r="3" fill="blue"/>
	<circle cx="1041" cy="246" r="3" fill="yellow"/>
	<circle cx="1043" cy="242" r="3" fill="green"/>
	<circle cx="266" cy="307" r="3" fill="blue"/>
	<circle cx="964" cy="301" r="3" fill="blue"/>
	<circle cx="968" cy="307" r="3" fill="yellow"/>
	<circle cx="969" cy="304" r="3" fill="green"/>
	<circle cx="337" cy="405" r="3" fill="blue"/>
	<circle cx="1044" cy="399" r="3" fill="blue"/>
	<circle cx="1039" cy="405" r="3" fill="yellow"/>
	<circle cx="1041" cy="401" r="3" fill="green"/>
	<circle cx="269" cy="419" r="3" fill="blue"/>
	<circle cx="965" cy="420" r="3" fill="blue"/>
	<circle cx="971" cy="419" r="3" fill="yellow"/>
	<circle cx="973" cy="415" r="3" fill="green"/>
	<circle cx="434" cy="54" r="3" fill="blue"/>
	<circle cx="1141" cy="59" r="3" fill="blue"/>
	<circle cx="1136" cy="54" r="3" fill="yellow"/>
	<circle cx="1138" cy="50" r="3" fill="green"/>
	<circle cx="434" cy="100" r="3" fill="blue"/>
	<circle cx="1141" cy="94" r="3" fill="blue"/>
	<circle cx="1136" cy="100" r="3" fill="yellow"/>
	<circle cx="1138" cy="96" r="3" fill="green"/>
	<circle cx="356" cy="151" r="3" fill="blue"/>
	<circle cx="1063" cy="145" r="3" fill="blue"/>
	<circle cx="1058" cy="151" r="3" fill="yellow"/>
	<circle cx="1059" cy="148" r="3" fill="green"/>
	<circle cx="429" cy="203" r="3" fill="blue"/>
	<circle cx="1129" cy="205" r="3" fill="blue"/>
	<circle cx="1131" cy="203" r="3" fill="yellow"/>
	<circle cx="1133" cy="199" r="3" fill="green"/>
	<circle cx="426" cy="244" r="3" fill="blue"/>
	<circle cx="1133" cy="238" r="3" fill="blue"/>
	<circle cx="1128" cy="244" r="3" fill="yellow"/>
	<circle cx="1130" cy="240" r="3" fill="green"/>
	<circle cx="384" cy="300" r="3" fill="blue"/>
	<circle cx="1091" cy="294" r="3" fill="blue"/>
	<circle cx="1086" cy="300" r="3" fill="yellow"/>
	<circle cx="1088" cy="296" r="3" fill="green"/>
	<circle cx="368" cy="403" r="3" fill="blue"/>
	<circle cx="1071" cy="397" r="3" fill="blue"/>
	<circle cx="1070" cy="403" r="3" fill="yellow"/>
	<circle cx="1072" cy="399" r="3" fill="green"/>
	<circle cx="356" cy="441" r="3" fill="blue"/>
	<circle cx="1063" cy="435" r="3" fill="blue"/>
	<circle cx="1058" cy="441" r="3" fill="yellow"/>
	<circle cx="1061" cy="436" r="3" fill="green"/>
	<circle cx="441" cy="12" r="3" fill="blue"/>
	<circle cx="1148" cy="6" r="3" fill="blue"/>
	<circle cx="1143" cy="12" r="3" fill="yellow"/>
	<circle cx="1145" cy="8" r="3" fill="green"/>
	<circle cx="501" cy="105" r="3" fill="blue"/>
	<circle cx="1206" cy="110" r="3" fill="blue"/>
	<circle cx="1203" cy="105" r="3" fill="yellow"/>
	<circle cx="1205" cy="101" r="3" fill="green"/>
	<circle cx="447" cy="136" r="3" fill="blue"/>
	<circle cx="1154" cy="132" r="3" fill="blue"/>
	<circle cx="1149" cy="136" r="3" fill="yellow"/>
	<circle cx="1151" cy="132" r="3" fill="green"/>
	<circle cx="458" cy="230" r="3" fill="blue"/>
	<circle cx="1165" cy="224" r="3" fill="blue"/>
	<circle cx="1160" cy="230" r="3" fill="yellow"/>
	<circle cx="1163" cy="225" r="3" fill="green"/>
	<circle cx="511" cy="278" r="3" fill="blue"/>
	<circle cx="1216" cy="272" r="3" fill="blue"/>
	<circle cx="1213" cy="278" r="3" fill="yellow"/>
	<circle cx="1216" cy="273" r="3" fill="green"/>
	<circle cx="517" cy="316" r="3" fill="blue"/>
	<circle cx="1224" cy="310" r="3" fill="blue"/>
	<circle cx="1219" cy="316" r="3" fill="yellow"/>
	<circle cx="1222" cy="311" r="3" fill="green"/>
	<circle cx="445" cy="409" r="3" fill="blue"/>
	<circle cx="1141" cy="414" r="3" fill="blue"/>
	<circle cx="1147" cy="409" r="3" fill="yellow"/>
	<circle cx="1150" cy="404" r="3" fill="green"/>
	<circle cx="518" cy="468" r="3" fill="blue"/>
	<circle cx="1225" cy="461" r="3" fill="blue"/>
	<circle cx="1220" cy="468" r="3" fill="yellow"/>
	<circle cx="1224" cy="462" r="3" fill="green"/>
	<circle cx="609" cy="6" r="3" fill="blue"/>
	<circle cx="1305" cy="4" r="3" fill="blue"/>
	<circle cx="1311" cy="6" r="3" fill="yellow"/>
	<circle cx="1314" cy="1" r="3" fill="green"/>
	<circle cx="579" cy="101" r="3" fill="blue"/>
	<circle cx="1281" cy="101" r="3" fill="blue"/>
	<circle cx="1281" cy="101" r="3" fill="yellow"/>
	<circle cx="1284" cy="96" r="3" fill="green"/>
	<circle cx="544" cy="174" r="3" fill="blue"/>
	<circle cx="1251" cy="168" r="3" fill="blue"/>
	<circle cx="1246" cy="174" r="3" fill="yellow"/>
	<circle cx="1249" cy="169" r="3" fill="green"/>
	<circle cx="603" cy="233" r="3" fill="blue"/>
	<circle cx="1310" cy="227" r="3" fill="blue"/>
	<circle cx="1305" cy="233" r="3" fill="yellow"/>
	<circle cx="1309" cy="227" r="3" fill="green"/>
	<circle cx="609" cy="241" r="3" fill="blue"/>
	<circle cx="1316" cy="235" r="3" fill="blue"/>
	<circle cx="1311" cy="241" r="3" fill="yellow"/>
	<circle cx="1315" cy="235" r="3" fill="green"/>
	<circle cx="609" cy="308" r="3" fill="blue"/>
	<circle cx="1316" cy="312" r="3" fill="blue"/>
	<circle cx="1311" cy="308" r="3" fill="yellow"/>
	<circle cx="1315" cy="302" r="3" fill="green"/>
	<circle cx="603" cy="389" r="3" fill="blue"/>
	<circle cx="1310" cy="383" r="3" fill="blue"/>
	<circle cx="1305" cy="389" r="3" fill="yellow"/>
	<circle cx="1309" cy="383" r="3" fill="green"/>
	<circle cx="570" cy="461" r="3" fill="blue"/>
	<circle cx="1277" cy="455" r="3" fill="blue"/>
	<circle cx="1272" cy="461" r="3" fill="yellow"/>
	<circle cx="1276" cy="455" r="3" fill="green"/>
	<circle cx="671" cy="55" r="3" fill="blue"/>
	<circle cx="1378" cy="49" r="3" fill="blue"/>
	<circle cx="1373" cy="55" r="3" fill="yellow"/>
	<circle cx="1377" cy="49" r="3" fill="green"/>
	<circle cx="679" cy="84" r="3" fill="blue"/>
	<circle cx="1386" cy="86" r="3" fill="blue"/>
	<circle cx="1381" cy="84" r="3" fill="yellow"/>
	<circle cx="1385" cy="78" r="3" fill="green"/>
	<circle cx="651" cy="163" r="3" fill="blue"/>
	<circle cx="1357" cy="160" r="3" fill="blue"/>
	<circle cx="1353" cy="163" r="3" fill="yellow"/>
	<circle cx="1357" cy="157" r="3" fill="green"/>
	<circle cx="650" cy="195" r="3" fill="blue"/>
	<circle cx="1348" cy="190" r="3" fill="blue"/>
	<circle cx="1352" cy="195" r="3" fill="yellow"/>
	<circle cx="1356" cy="189" r="3" fill="green"/>
	<circle cx="617" cy="246" r="3" fill="blue"/>
	<circle cx="1324" cy="240" r="3" fill="blue"/>
	<circle cx="1319" cy="246" r="3" fill="yellow"/>
	<circle cx="1323" cy="240" r="3" fill="green"/>
	<circle cx="624" cy="308" r="3" fill="blue"/>
	<circle cx="1330" cy="302" r="3" fill="blue"/>
	<circle cx="1326" cy="308" r="3" fill="yellow"/>
	<circle cx="1330" cy="302" r="3" fill="green"/>
	<circle cx="644" cy="360" r="3" fill="blue"/>
	<circle cx="1351" cy="354" r="3" fill="blue"/>
	<circle cx="1346" cy="360" r="3" fill="yellow"/>
	<circle cx="1351" cy="353" r="3" fill="green"/>
	<circle cx="620" cy="458" r="3" fill="blue"/>
	<circle cx="1325" cy="452" r="3" fill="blue"/>
	<circle cx="1322" cy="458" r="3" fill="yellow"/>
	<circle cx="1327" cy="451" r="3" fill="green"/>
</svg>
